<svg fill="none" height="20" viewBox="0 0 20 20" width="20" xmlns="http://www.w3.org/2000/svg"><g fill="#000" opacity=".2"><path d="m0 0h20v20h-20z" opacity=".01"/><path d="m9.99984 9.99992c.46026 0 .83336-.3731.83336-.83333 0-.46024-.3731-.83334-.83336-.83334-.46024 0-.83334.3731-.83334.83334 0 .46023.3731.83333.83334.83333z"/><path d="m13.3333 9.99992c.4603 0 .8334-.3731.8334-.83333 0-.46024-.3731-.83334-.8334-.83334-.4602 0-.8333.3731-.8333.83334 0 .46023.3731.83333.8333.83333z"/><path d="m6.66683 9.99992c.46024 0 .83333-.3731.83333-.83333 0-.46024-.37309-.83334-.83333-.83334s-.83333.3731-.83333.83334c0 .46023.37309.83333.83333.83333z"/><path clip-rule="evenodd" d="m4.1665 2.5h11.6667c1.3807 0 2.5 1.11929 2.5 2.5v8.3333c0 1.3807-1.1193 2.5-2.5 2.5h-8.70836c-.16084-.0062-.32003.0344-.45834.1167l-3.74166 2.2667c-.12863.0763-.27543.1166-.425.1166-.14316-.0004-.28379-.0377-.40834-.1083-.26207-.1473-.42448-.4244-.425-.725v-12.5c0-1.38071 1.11929-2.5 2.5-2.5zm11.6667 11.6667c.4602 0 .8333-.3731.8333-.8334v-8.3333c0-.46024-.3731-.83333-.8333-.83333h-11.6667c-.46023 0-.83333.37309-.83333.83333v11.025l2.5-1.5c.38991-.2348.83652-.3587 1.29167-.3583z" fill-rule="evenodd"/></g></svg>